<svg xmlns="http://www.w3.org/2000/svg" id="uuid-6bea335d-43dc-4734-aebd-5b8f639c100e" viewBox="0 0 179.7 49.6"><path d="m69.3,12.5h12.5c2.6,0,3.8,1.1,3.8,3.3h-16.2v4h12.5c2.7,0,4,1.4,4,4.2v2.5c0,1.8-.3,3.1-.9,3.9-.8,1-2.4,1.1-3.6,1.1h-12.5c-2.9,0-4.3-1.2-4.3-3.7h17.4v-4.3h-12.9c-2.5,0-3.7-1.4-3.7-4.2v-2.8c0-2.7,1.3-4,3.9-4Z" fill="#fff" stroke-width="0"></path><path d="m88.1,12.7h19.6v3c0,.2-.1.3-.3.3h-14.7v4h8.7v3.3h-8.7v4.3h14.9c.2,0,.3.1.3.3v3.3h-19.7V12.7h-.1Z" fill="#fff" stroke-width="0"></path><path d="m114.5,12.5h12.5c2.6,0,3.8,1.1,3.8,3.3h-16.1v4h12.5c2.7,0,4,1.4,4,4.2v2.5c0,1.2-.1,2.6-.7,3.6-.7,1.2-2.6,1.4-3.8,1.4h-12.5c-2.9,0-4.3-1.2-4.3-3.7h17.4v-4.3h-12.9c-2.5,0-3.7-1.4-3.7-4.2v-2.8c0-2.7,1.3-4,3.8-4Z" fill="#fff" stroke-width="0"></path><path d="m138.2,12.7h11.7c2.9,0,4.3,1.2,4.3,3.5h-16.4l.2.3v10.8l-.2.3h16.4v.2c0,2.3-1.3,3.5-3.8,3.5h-13.5c-2.3,0-3.5-1.7-3.5-5v-8.7c0-2.6.6-4.1,1.7-4.5.6-.3,1.6-.4,3.1-.4Z" fill="#fff" stroke-width="0"></path><path d="m160.2,12.5h16.2c2.2.3,3.3,1.4,3.3,3.3v11.5c0,1.2-.2,2.7-1.3,3.5-1.5,1.1-3.6.7-5.4.7h-12.2c-1.1-.1-2.4-.1-3.3-.8-1.1-.8-1.2-2.1-1.2-3.4v-11c0-2.5,1.3-3.8,3.9-3.8Zm.6,3.5v11.8h14.4v-11.8h-14.4Z" fill="#fff" stroke-width="0"></path><path d="m86.9,41.3c0,1,.1,1.6.3,1.8s.9.3,2,.3,1.7-.1,1.9-.2c.3-.1.4-.5.4-1.1h.8c0,.9-.2,1.5-.6,1.7s-1.2.4-2.6.4-2.3-.2-2.7-.5c-.4-.3-.6-1.1-.6-2.4s.2-2.1.6-2.4c.4-.3,1.3-.5,2.7-.5s2.3.1,2.6.3c.4.2.6.8.6,1.7h-.8c0-.6-.1-1-.4-1.1s-.9-.2-2-.2-1.8.1-2,.3c-.1.3-.2.9-.2,1.9Z" fill="#fff" stroke-width="0"></path><path d="m98.9,38.5h5.5v.8h-4.6v1.6h4.4v.8h-4.4v1.7h4.6v.8h-5.5v-5.7Z" fill="#fff" stroke-width="0"></path><path d="m112.6,38.5l2.9,4.7,2.9-4.7h1.5v5.7h-.8v-4.9h-.2l-3.2,4.9h-.5l-3.2-4.9h-.2v4.9h-.8v-5.7h1.6Z" fill="#fff" stroke-width="0"></path><path d="m126.6,38.5h5.4v.8h-4.6v1.6h4.4v.8h-4.4v1.7h4.6v.8h-5.4v-5.7Z" fill="#fff" stroke-width="0"></path><path d="m138.7,38.5h1.2l4.9,5v-5h.8v5.7h-1.3l-4.8-4.9v4.9h-.8v-5.7Z" fill="#fff" stroke-width="0"></path><path d="m152.3,38.5h5.9v.8h-2.5v4.9h-.9v-4.9h-2.6l.1-.8Z" fill="#fff" stroke-width="0"></path><path d="m19.7,39.1l-8-13.7c-.1-.2-.2-.4-.2-.6s.1-.4.2-.6l8-13.7h16.6l4.5,7.8h-6.4l-1.3-2.3h-10.3l-5.1,8.8,5.1,8.8h10.3l1-1.8h6.4l-4.2,7.3h-16.6Z" fill="#fff" stroke-width="0"></path><path d="m55.2,27.4l-11.4,19.6c-.5.8-1.1,1.4-1.9,1.9-.8.5-1.7.7-2.6.7h-22.7c-.9,0-1.8-.2-2.6-.7-.8-.5-1.4-1.1-1.9-1.9L3.1,31.4h7.3l6.9,11.8h21.4l8.9-15.3h-21.5l3.7-6.3h25.1l.3.6c.5.8.7,1.7.7,2.6,0,.9-.2,1.8-.7,2.6ZM43.8,2.6c-.5-.8-1.1-1.4-1.9-1.9-.8-.5-1.7-.7-2.6-.7h-22.7c-.9,0-1.8.2-2.6.7-.8.5-1.4,1.1-1.9,1.9L.7,22.2c-.5.8-.7,1.7-.7,2.6s.2,1.8.7,2.6l.3.6h10.9l-1.2-2.3c-.2-.3-.2-.6-.2-.9s.1-.6.2-.9l1.3-2.2h-3.6l8.9-15.3h21.4l6.9,11.9h7.3l-9.1-15.7Z" fill="#40acce" stroke-width="0"></path></svg>