<svg viewBox="0 0 900 520" xmlns="http://www.w3.org/2000/svg">
  <style>
    @keyframes popIn { from { opacity: 0; transform: scale(0.9); } to { opacity: 1; transform: scale(1); } }
    @keyframes fadeIn { from { opacity: 0; } to { opacity: 1; } }
    @keyframes slideRight { from { transform: translateX(-10px); opacity: 0; } to { transform: translateX(0); opacity: 1; } }
    .pop { opacity: 0; animation: popIn 0.4s ease forwards; }
    .fade { opacity: 0; animation: fadeIn 0.5s ease forwards; }
    .slide { opacity: 0; animation: slideRight 0.4s ease forwards; }
    .d1 { animation-delay: 0.2s; } .d2 { animation-delay: 0.4s; } .d3 { animation-delay: 0.6s; }
    .d4 { animation-delay: 0.8s; } .d5 { animation-delay: 1.0s; } .d6 { animation-delay: 1.2s; }
    .d7 { animation-delay: 1.4s; } .d8 { animation-delay: 1.6s; } .d9 { animation-delay: 1.8s; }
    .d10 { animation-delay: 2.0s; } .d11 { animation-delay: 2.2s; } .d12 { animation-delay: 2.4s; }
    text { font-family: -apple-system, 'SF Pro Display', 'Segoe UI', sans-serif; }
    .mono { font-family: 'SF Mono', 'Fira Code', monospace; }

    /* Interactive styles */
    .kpi-card { cursor: pointer; transition: filter 0.2s, transform 0.2s; }
    .kpi-card:hover { filter: drop-shadow(0 4px 12px rgba(0,0,0,0.15)); transform: translateY(-2px); }
    .kpi-card:hover .kpi-bg { fill: #F0F9FF; }

    .bar-row { cursor: pointer; }
    .bar-row:hover .bar-fill { filter: brightness(1.15); }
    .bar-row:hover .bar-label { font-weight: 700; }

    .activity-row { cursor: pointer; transition: opacity 0.15s; }
    .activity-row:hover { opacity: 0.7; }
    .activity-row:hover .activity-bg { opacity: 0.06; }

    .nav-item { cursor: pointer; }
    .nav-item:hover text { fill: #1E6CB5; }

    .chart-point { cursor: pointer; transition: r 0.2s; }
    .chart-point:hover { r: 6; }

    .status-row { cursor: pointer; }
    .status-row:hover .status-bar-bg { fill: #E2E8F0; }

    .tooltip { opacity: 0; transition: opacity 0.2s; pointer-events: none; }
    .kpi-card:hover .tooltip,
    .chart-point:hover + .tooltip,
    .bar-row:hover .tooltip { opacity: 1; }
  </style>

  <!-- Background -->
  <rect width="900" height="520" fill="#F8FAFC" rx="8"/>

  <!-- Top Nav Bar -->
  <rect x="0" y="0" width="900" height="44" fill="#FFFFFF" rx="8"/>
  <rect x="0" y="42" width="900" height="1" fill="#E2E8F0"/>
  <g class="pop d1">
    <rect x="20" y="10" width="24" height="24" rx="6" fill="#1E6CB5"/>
    <text x="32" y="27" fill="#FFFFFF" font-size="11" text-anchor="middle" font-weight="bold">M</text>
    <text x="54" y="28" fill="#1E293B" font-size="11" font-weight="700">Material Status Report</text>
    <text x="280" y="28" fill="#94A3B8" font-size="9">Greenfield LNG Terminal</text>
  </g>
  <g class="fade d2">
    <g class="nav-item"><text x="520" y="28" fill="#64748B" font-size="9">Dashboard</text></g>
    <rect x="512" y="32" width="52" height="2" rx="1" fill="#1E6CB5"/>
    <g class="nav-item"><text x="600" y="28" fill="#94A3B8" font-size="9">Purchase Orders</text></g>
    <g class="nav-item"><text x="700" y="28" fill="#94A3B8" font-size="9">Shipments</text></g>
    <g class="nav-item"><text x="790" y="28" fill="#94A3B8" font-size="9">Installation</text></g>
  </g>
  <g class="fade d2">
    <circle cx="860" cy="22" r="4" fill="#22C55E"><animate attributeName="opacity" values="1;0.4;1" dur="2s" repeatCount="indefinite"/></circle>
    <text x="870" y="26" fill="#64748B" font-size="7">Live</text>
  </g>

  <!-- ===== KPI Cards ===== -->

  <!-- Card 1: Total POs -->
  <g class="pop d2 kpi-card">
    <rect x="20" y="56" width="205" height="72" rx="8" fill="#FFFFFF" stroke="#E2E8F0" stroke-width="1" class="kpi-bg"/>
    <text x="36" y="76" fill="#64748B" font-size="8">TOTAL PURCHASE ORDERS</text>
    <text x="36" y="104" fill="#1E293B" font-size="24" font-weight="700">847</text>
    <text x="110" y="104" fill="#22C55E" font-size="9" font-weight="600">+12 this week</text>
    <rect x="180" y="66" width="32" height="32" rx="8" fill="#EFF6FF"/>
    <text x="196" y="88" fill="#1E6CB5" font-size="16" text-anchor="middle">📋</text>
    <!-- Tooltip -->
    <g class="tooltip">
      <rect x="30" y="108" width="140" height="20" rx="4" fill="#1E293B"/>
      <text x="100" y="122" fill="#FFFFFF" font-size="7" text-anchor="middle">562 delivered | 285 pending</text>
    </g>
  </g>

  <!-- Card 2: PO Value -->
  <g class="pop d3 kpi-card">
    <rect x="237" y="56" width="205" height="72" rx="8" fill="#FFFFFF" stroke="#E2E8F0" stroke-width="1" class="kpi-bg"/>
    <text x="253" y="76" fill="#64748B" font-size="8">TOTAL PO VALUE</text>
    <text x="253" y="104" fill="#1E293B" font-size="24" font-weight="700">$4.98M</text>
    <rect x="397" y="66" width="32" height="32" rx="8" fill="#F0FDF4"/>
    <text x="413" y="88" fill="#22C55E" font-size="16" text-anchor="middle">💰</text>
    <g class="tooltip">
      <rect x="247" y="108" width="155" height="20" rx="4" fill="#1E293B"/>
      <text x="325" y="122" fill="#FFFFFF" font-size="7" text-anchor="middle">$3.2M committed | $1.78M invoiced</text>
    </g>
  </g>

  <!-- Card 3: Shipments -->
  <g class="pop d4 kpi-card">
    <rect x="454" y="56" width="205" height="72" rx="8" fill="#FFFFFF" stroke="#E2E8F0" stroke-width="1" class="kpi-bg"/>
    <text x="470" y="76" fill="#64748B" font-size="8">SHIPMENTS IN TRANSIT</text>
    <text x="470" y="104" fill="#1E293B" font-size="24" font-weight="700">127</text>
    <text x="540" y="104" fill="#F59E0B" font-size="9" font-weight="600">19 delayed</text>
    <rect x="614" y="66" width="32" height="32" rx="8" fill="#FFFBEB"/>
    <text x="630" y="88" fill="#F59E0B" font-size="16" text-anchor="middle">🚛</text>
    <g class="tooltip">
      <rect x="464" y="108" width="170" height="20" rx="4" fill="#1E293B"/>
      <text x="549" y="122" fill="#FFFFFF" font-size="7" text-anchor="middle">46 delivered | 7 in transit | 74 not RTS</text>
    </g>
  </g>

  <!-- Card 4: Installation -->
  <g class="pop d5 kpi-card">
    <rect x="671" y="56" width="210" height="72" rx="8" fill="#FFFFFF" stroke="#E2E8F0" stroke-width="1" class="kpi-bg"/>
    <text x="687" y="76" fill="#64748B" font-size="8">INSTALLATION ITEMS</text>
    <text x="687" y="104" fill="#1E293B" font-size="24" font-weight="700">2,456</text>
    <text x="780" y="104" fill="#22C55E" font-size="9" font-weight="600">68% complete</text>
    <rect x="836" y="66" width="32" height="32" rx="8" fill="#F0FDF4"/>
    <text x="852" y="88" fill="#22C55E" font-size="16" text-anchor="middle">🔧</text>
    <g class="tooltip">
      <rect x="681" y="108" width="160" height="20" rx="4" fill="#1E293B"/>
      <text x="761" y="122" fill="#FFFFFF" font-size="7" text-anchor="middle">1,670 installed | 786 remaining</text>
    </g>
  </g>

  <!-- ===== Delivery Timeline Chart ===== -->
  <g class="pop d6">
    <rect x="20" y="142" width="530" height="180" rx="8" fill="#FFFFFF" stroke="#E2E8F0" stroke-width="1"/>
    <text x="36" y="164" fill="#1E293B" font-size="10" font-weight="700">Delivery Timeline</text>
    <text x="36" y="176" fill="#94A3B8" font-size="7">Monthly shipment arrivals vs scheduled</text>

    <text x="50" y="200" fill="#94A3B8" font-size="6" text-anchor="end" class="mono">100</text>
    <text x="50" y="228" fill="#94A3B8" font-size="6" text-anchor="end" class="mono">75</text>
    <text x="50" y="256" fill="#94A3B8" font-size="6" text-anchor="end" class="mono">50</text>
    <text x="50" y="284" fill="#94A3B8" font-size="6" text-anchor="end" class="mono">25</text>
    <text x="50" y="308" fill="#94A3B8" font-size="6" text-anchor="end" class="mono">0</text>

    <line x1="58" y1="197" x2="530" y2="197" stroke="#F1F5F9" stroke-width="0.5"/>
    <line x1="58" y1="225" x2="530" y2="225" stroke="#F1F5F9" stroke-width="0.5"/>
    <line x1="58" y1="253" x2="530" y2="253" stroke="#F1F5F9" stroke-width="0.5"/>
    <line x1="58" y1="281" x2="530" y2="281" stroke="#F1F5F9" stroke-width="0.5"/>
    <line x1="58" y1="305" x2="530" y2="305" stroke="#F1F5F9" stroke-width="0.5"/>

    <!-- Scheduled line -->
    <polyline points="80,270 130,255 180,240 230,225 280,210 330,200 380,197 430,200 480,210 520,220" fill="none" stroke="#CBD5E1" stroke-width="1.5" stroke-dasharray="4,3" class="fade d7"/>

    <!-- Actual line -->
    <polyline points="80,275 130,260 180,248 230,232 280,218 330,208 380,200 430,195 480,198 520,202" fill="none" stroke="#1E6CB5" stroke-width="2" class="fade d8"/>

    <!-- Area fill -->
    <polygon points="80,275 130,260 180,248 230,232 280,218 330,208 380,200 430,195 480,198 520,202 520,305 80,305" fill="url(#blueGrad)" opacity="0.15" class="fade d8"/>

    <!-- Interactive data points -->
    <circle cx="80" cy="275" r="3.5" fill="#FFFFFF" stroke="#1E6CB5" stroke-width="1.5" class="chart-point fade d8"/>
    <g class="tooltip"><rect x="60" y="255" width="50" height="16" rx="3" fill="#1E293B"/><text x="85" y="266" fill="#FFF" font-size="6" text-anchor="middle">Jan: 24</text></g>

    <circle cx="130" cy="260" r="3.5" fill="#FFFFFF" stroke="#1E6CB5" stroke-width="1.5" class="chart-point fade d8"/>
    <g class="tooltip"><rect x="110" y="240" width="50" height="16" rx="3" fill="#1E293B"/><text x="135" y="251" fill="#FFF" font-size="6" text-anchor="middle">Feb: 38</text></g>

    <circle cx="180" cy="248" r="3.5" fill="#FFFFFF" stroke="#1E6CB5" stroke-width="1.5" class="chart-point fade d8"/>
    <g class="tooltip"><rect x="160" y="228" width="50" height="16" rx="3" fill="#1E293B"/><text x="185" y="239" fill="#FFF" font-size="6" text-anchor="middle">Mar: 48</text></g>

    <circle cx="230" cy="232" r="3.5" fill="#FFFFFF" stroke="#1E6CB5" stroke-width="1.5" class="chart-point fade d8"/>
    <g class="tooltip"><rect x="210" y="212" width="50" height="16" rx="3" fill="#1E293B"/><text x="235" y="223" fill="#FFF" font-size="6" text-anchor="middle">Apr: 62</text></g>

    <circle cx="280" cy="218" r="3.5" fill="#FFFFFF" stroke="#1E6CB5" stroke-width="1.5" class="chart-point fade d8"/>
    <g class="tooltip"><rect x="260" y="198" width="52" height="16" rx="3" fill="#1E293B"/><text x="286" y="209" fill="#FFF" font-size="6" text-anchor="middle">May: 74</text></g>

    <circle cx="330" cy="208" r="3.5" fill="#FFFFFF" stroke="#1E6CB5" stroke-width="1.5" class="chart-point fade d8"/>
    <g class="tooltip"><rect x="310" y="188" width="50" height="16" rx="3" fill="#1E293B"/><text x="335" y="199" fill="#FFF" font-size="6" text-anchor="middle">Jun: 82</text></g>

    <circle cx="380" cy="200" r="3.5" fill="#FFFFFF" stroke="#1E6CB5" stroke-width="1.5" class="chart-point fade d8"/>
    <g class="tooltip"><rect x="360" y="180" width="50" height="16" rx="3" fill="#1E293B"/><text x="385" y="191" fill="#FFF" font-size="6" text-anchor="middle">Jul: 89</text></g>

    <circle cx="430" cy="195" r="4" fill="#1E6CB5" stroke="#FFFFFF" stroke-width="1.5" class="chart-point fade d9">
      <animate attributeName="r" values="4;6;4" dur="2s" repeatCount="indefinite"/>
    </circle>
    <g class="tooltip"><rect x="410" y="175" width="52" height="16" rx="3" fill="#1E293B"/><text x="436" y="186" fill="#FFF" font-size="6" text-anchor="middle">Aug: 93 ▲</text></g>

    <circle cx="480" cy="198" r="3.5" fill="#FFFFFF" stroke="#1E6CB5" stroke-width="1.5" class="chart-point fade d9"/>
    <g class="tooltip"><rect x="460" y="178" width="52" height="16" rx="3" fill="#1E293B"/><text x="486" y="189" fill="#FFF" font-size="6" text-anchor="middle">Sep: 91</text></g>

    <circle cx="520" cy="202" r="3.5" fill="#FFFFFF" stroke="#1E6CB5" stroke-width="1.5" class="chart-point fade d9"/>
    <g class="tooltip"><rect x="490" y="182" width="52" height="16" rx="3" fill="#1E293B"/><text x="516" y="193" fill="#FFF" font-size="6" text-anchor="middle">Oct: 87</text></g>

    <!-- X axis -->
    <text x="80" y="316" fill="#94A3B8" font-size="6" text-anchor="middle">Jan</text>
    <text x="130" y="316" fill="#94A3B8" font-size="6" text-anchor="middle">Feb</text>
    <text x="180" y="316" fill="#94A3B8" font-size="6" text-anchor="middle">Mar</text>
    <text x="230" y="316" fill="#94A3B8" font-size="6" text-anchor="middle">Apr</text>
    <text x="280" y="316" fill="#94A3B8" font-size="6" text-anchor="middle">May</text>
    <text x="330" y="316" fill="#94A3B8" font-size="6" text-anchor="middle">Jun</text>
    <text x="380" y="316" fill="#94A3B8" font-size="6" text-anchor="middle">Jul</text>
    <text x="430" y="316" fill="#94A3B8" font-size="6" text-anchor="middle">Aug</text>
    <text x="480" y="316" fill="#94A3B8" font-size="6" text-anchor="middle">Sep</text>
    <text x="520" y="316" fill="#94A3B8" font-size="6" text-anchor="middle">Oct</text>

    <line x1="400" y1="160" x2="420" y2="160" stroke="#1E6CB5" stroke-width="2"/>
    <text x="425" y="163" fill="#64748B" font-size="7">Actual</text>
    <line x1="470" y1="160" x2="490" y2="160" stroke="#CBD5E1" stroke-width="1.5" stroke-dasharray="4,3"/>
    <text x="495" y="163" fill="#64748B" font-size="7">Scheduled</text>
  </g>

  <defs>
    <linearGradient id="blueGrad" x1="0" y1="0" x2="0" y2="1">
      <stop offset="0%" style="stop-color:#1E6CB5;stop-opacity:0.3"/>
      <stop offset="100%" style="stop-color:#1E6CB5;stop-opacity:0"/>
    </linearGradient>
  </defs>

  <!-- ===== Shipment Status Panel ===== -->
  <g class="pop d7">
    <rect x="562" y="142" width="320" height="180" rx="8" fill="#FFFFFF" stroke="#E2E8F0" stroke-width="1"/>
    <text x="578" y="164" fill="#1E293B" font-size="10" font-weight="700">Shipment Status</text>

    <g class="slide d8 status-row">
      <rect x="570" y="176" width="300" height="30" rx="4" fill="transparent" class="status-bar-bg"/>
      <circle cx="588" cy="188" r="5" fill="#22C55E"/>
      <text x="600" y="191" fill="#1E293B" font-size="8" font-weight="600">Delivered</text>
      <text x="820" y="191" fill="#1E293B" font-size="9" font-weight="700" text-anchor="end">46</text>
      <rect x="600" y="196" width="220" height="6" rx="3" fill="#F1F5F9"/>
      <rect x="600" y="196" width="160" height="6" rx="3" fill="#22C55E" class="bar-fill"/>
    </g>

    <g class="slide d9 status-row">
      <rect x="570" y="210" width="300" height="30" rx="4" fill="transparent" class="status-bar-bg"/>
      <circle cx="588" cy="222" r="5" fill="#3B82F6"/>
      <text x="600" y="225" fill="#1E293B" font-size="8" font-weight="600">In Transit</text>
      <text x="820" y="225" fill="#1E293B" font-size="9" font-weight="700" text-anchor="end">7</text>
      <rect x="600" y="230" width="220" height="6" rx="3" fill="#F1F5F9"/>
      <rect x="600" y="230" width="24" height="6" rx="3" fill="#3B82F6" class="bar-fill">
        <animate attributeName="width" values="24;28;24" dur="2s" repeatCount="indefinite"/>
      </rect>
    </g>

    <g class="slide d10 status-row">
      <rect x="570" y="244" width="300" height="30" rx="4" fill="transparent" class="status-bar-bg"/>
      <circle cx="588" cy="256" r="5" fill="#F59E0B"/>
      <text x="600" y="259" fill="#1E293B" font-size="8" font-weight="600">Not Ready to Ship</text>
      <text x="820" y="259" fill="#1E293B" font-size="9" font-weight="700" text-anchor="end">74</text>
      <rect x="600" y="264" width="220" height="6" rx="3" fill="#F1F5F9"/>
      <rect x="600" y="264" width="128" height="6" rx="3" fill="#F59E0B" class="bar-fill"/>
    </g>

    <g class="slide d11 status-row">
      <rect x="570" y="278" width="300" height="30" rx="4" fill="transparent" class="status-bar-bg"/>
      <circle cx="588" cy="290" r="5" fill="#8B5CF6"/>
      <text x="600" y="293" fill="#1E293B" font-size="8" font-weight="600">Ready to Ship</text>
      <text x="820" y="293" fill="#1E293B" font-size="9" font-weight="700" text-anchor="end">0</text>
      <rect x="600" y="298" width="220" height="6" rx="3" fill="#F1F5F9"/>
    </g>
  </g>

  <!-- ===== Installation Progress ===== -->
  <g class="pop d9">
    <rect x="20" y="336" width="440" height="170" rx="8" fill="#FFFFFF" stroke="#E2E8F0" stroke-width="1"/>
    <text x="36" y="358" fill="#1E293B" font-size="10" font-weight="700">Installation Progress by Discipline</text>

    <g class="slide d10 bar-row">
      <text x="36" y="382" fill="#475569" font-size="8" class="bar-label">Civil</text>
      <rect x="110" y="374" width="280" height="10" rx="4" fill="#F1F5F9"/>
      <rect x="110" y="374" width="252" height="10" rx="4" fill="#22C55E" class="bar-fill"/>
      <text x="400" y="383" fill="#22C55E" font-size="8" font-weight="600" class="mono">90%</text>
      <g class="tooltip"><rect x="300" y="362" width="70" height="14" rx="3" fill="#1E293B"/><text x="335" y="372" fill="#FFF" font-size="6" text-anchor="middle">422 of 469</text></g>
    </g>

    <g class="slide d10 bar-row">
      <text x="36" y="402" fill="#475569" font-size="8" class="bar-label">Electrical</text>
      <rect x="110" y="394" width="280" height="10" rx="4" fill="#F1F5F9"/>
      <rect x="110" y="394" width="210" height="10" rx="4" fill="#3B82F6" class="bar-fill"/>
      <text x="400" y="403" fill="#3B82F6" font-size="8" font-weight="600" class="mono">75%</text>
      <g class="tooltip"><rect x="260" y="382" width="70" height="14" rx="3" fill="#1E293B"/><text x="295" y="392" fill="#FFF" font-size="6" text-anchor="middle">384 of 512</text></g>
    </g>

    <g class="slide d11 bar-row">
      <text x="36" y="422" fill="#475569" font-size="8" class="bar-label">Instrumentation</text>
      <rect x="110" y="414" width="280" height="10" rx="4" fill="#F1F5F9"/>
      <rect x="110" y="414" width="179" height="10" rx="4" fill="#3B82F6" class="bar-fill"/>
      <text x="400" y="423" fill="#3B82F6" font-size="8" font-weight="600" class="mono">64%</text>
      <g class="tooltip"><rect x="230" y="402" width="70" height="14" rx="3" fill="#1E293B"/><text x="265" y="412" fill="#FFF" font-size="6" text-anchor="middle">291 of 455</text></g>
    </g>

    <g class="slide d11 bar-row">
      <text x="36" y="442" fill="#475569" font-size="8" class="bar-label">Mechanical</text>
      <rect x="110" y="434" width="280" height="10" rx="4" fill="#F1F5F9"/>
      <rect x="110" y="434" width="224" height="10" rx="4" fill="#22C55E" class="bar-fill"/>
      <text x="400" y="443" fill="#22C55E" font-size="8" font-weight="600" class="mono">80%</text>
      <g class="tooltip"><rect x="270" y="422" width="70" height="14" rx="3" fill="#1E293B"/><text x="305" y="432" fill="#FFF" font-size="6" text-anchor="middle">528 of 660</text></g>
    </g>

    <g class="slide d12 bar-row">
      <text x="36" y="462" fill="#475569" font-size="8" class="bar-label">Steel</text>
      <rect x="110" y="454" width="280" height="10" rx="4" fill="#F1F5F9"/>
      <rect x="110" y="454" width="154" height="10" rx="4" fill="#F59E0B" class="bar-fill"/>
      <text x="400" y="463" fill="#F59E0B" font-size="8" font-weight="600" class="mono">55%</text>
      <g class="tooltip"><rect x="210" y="442" width="70" height="14" rx="3" fill="#1E293B"/><text x="245" y="452" fill="#FFF" font-size="6" text-anchor="middle">198 of 360</text></g>
    </g>

    <rect x="36" y="476" width="404" height="20" rx="6" fill="#EFF6FF"/>
    <text x="46" y="490" fill="#1E6CB5" font-size="8" font-weight="700">OVERALL</text>
    <text x="410" y="490" fill="#1E6CB5" font-size="10" font-weight="700" text-anchor="end">68%</text>
    <rect x="110" y="482" width="280" height="5" rx="2" fill="#DBEAFE"/>
    <rect x="110" y="482" width="190" height="5" rx="2" fill="#1E6CB5"/>
  </g>

  <!-- ===== Recent Activity Feed ===== -->
  <g class="pop d10">
    <rect x="472" y="336" width="410" height="170" rx="8" fill="#FFFFFF" stroke="#E2E8F0" stroke-width="1"/>
    <text x="488" y="358" fill="#1E293B" font-size="10" font-weight="700">Recent Activity</text>
    <circle cx="860" cy="352" r="4" fill="#22C55E"><animate attributeName="opacity" values="1;0.3;1" dur="1.5s" repeatCount="indefinite"/></circle>
    <text x="848" y="356" fill="#64748B" font-size="7" text-anchor="end">Live</text>

    <g class="slide d11 activity-row">
      <rect x="482" y="366" width="390" height="26" rx="4" fill="transparent" class="activity-bg"/>
      <circle cx="498" cy="380" r="4" fill="#22C55E"/>
      <text x="510" y="378" fill="#1E293B" font-size="7.5" font-weight="600">PO-4521 Delivered</text>
      <text x="510" y="389" fill="#94A3B8" font-size="6.5">Heat exchanger E-101 arrived at Cedar Creek Site</text>
      <text x="850" y="383" fill="#94A3B8" font-size="6.5" text-anchor="end">2m ago</text>
    </g>

    <g class="slide d11 activity-row">
      <rect x="482" y="393" width="390" height="26" rx="4" fill="transparent" class="activity-bg"/>
      <rect x="488" y="396" width="380" height="0.5" fill="#F1F5F9"/>
      <circle cx="498" cy="410" r="4" fill="#3B82F6"/>
      <text x="510" y="408" fill="#1E293B" font-size="7.5" font-weight="600">Shipment SH-892 In Transit</text>
      <text x="510" y="419" fill="#94A3B8" font-size="6.5">MCC Crates departed Riverbend Yard → Freeport, TX</text>
      <text x="850" y="413" fill="#94A3B8" font-size="6.5" text-anchor="end">15m ago</text>
    </g>

    <g class="slide d12 activity-row">
      <rect x="482" y="420" width="390" height="26" rx="4" fill="transparent" class="activity-bg"/>
      <rect x="488" y="426" width="380" height="0.5" fill="#F1F5F9"/>
      <circle cx="498" cy="440" r="4" fill="#F59E0B"/>
      <text x="510" y="438" fill="#1E293B" font-size="7.5" font-weight="600">Exception: PO-4498</text>
      <text x="510" y="449" fill="#94A3B8" font-size="6.5">Cathodic Protection Rectifier — quantity mismatch flagged</text>
      <text x="850" y="443" fill="#F59E0B" font-size="6.5" text-anchor="end">1h ago</text>
    </g>

    <g class="slide d12 activity-row">
      <rect x="482" y="450" width="390" height="26" rx="4" fill="transparent" class="activity-bg"/>
      <rect x="488" y="456" width="380" height="0.5" fill="#F1F5F9"/>
      <circle cx="498" cy="470" r="4" fill="#8B5CF6"/>
      <text x="510" y="468" fill="#1E293B" font-size="7.5" font-weight="600">Installation: Mechanical 80%</text>
      <text x="510" y="479" fill="#94A3B8" font-size="6.5">Compressor module M-201 install signed off by J. Hartley</text>
      <text x="850" y="473" fill="#94A3B8" font-size="6.5" text-anchor="end">3h ago</text>
    </g>

    <g class="slide d12 activity-row">
      <rect x="482" y="480" width="390" height="26" rx="4" fill="transparent" class="activity-bg"/>
      <rect x="488" y="486" width="380" height="0.5" fill="#F1F5F9"/>
      <circle cx="498" cy="498" r="4" fill="#22C55E"/>
      <text x="510" y="496" fill="#1E293B" font-size="7.5" font-weight="600">QR Scan: BOG Compressor Module</text>
      <text x="510" y="506" fill="#94A3B8" font-size="6.5">Received at laydown yard — inspection passed</text>
      <text x="850" y="500" fill="#94A3B8" font-size="6.5" text-anchor="end">5h ago</text>
    </g>
  </g>
</svg>
